<svg width="47" height="47" viewBox="0 0 47 47" fill="none" xmlns="http://www.w3.org/2000/svg">
<path fill-rule="evenodd" clip-rule="evenodd" d="M13.7083 6.85482C12.9293 6.85482 12.1821 7.1643 11.6312 7.71519C11.0803 8.26608 10.7708 9.01324 10.7708 9.79232V37.209C10.7708 37.9881 11.0803 38.7352 11.6312 39.2861C12.1821 39.837 12.9293 40.1465 13.7083 40.1465H33.2917C34.0707 40.1465 34.8179 39.837 35.3688 39.2861C35.9197 38.7352 36.2292 37.9881 36.2292 37.209V18.4366C36.2291 18.177 36.1259 17.9279 35.9423 17.7443L25.3398 7.14182C25.1562 6.95823 24.9072 6.85493 24.6476 6.85482H13.7083ZM10.2465 6.33044C11.1646 5.41229 12.4099 4.89648 13.7083 4.89648H24.6476C25.4265 4.89665 26.1737 5.20621 26.7245 5.75707M26.7245 5.75707L37.3268 16.3594C37.8777 16.9101 38.1873 17.6572 38.1875 18.4362V37.209C38.1875 38.5074 37.6717 39.7527 36.7535 40.6709C35.8354 41.589 34.5901 42.1048 33.2917 42.1048H13.7083C12.4099 42.1048 11.1646 41.589 10.2465 40.6709C9.32831 39.7527 8.8125 38.5074 8.8125 37.209V9.79232C8.8125 8.49386 9.32831 7.24859 10.2465 6.33044" fill="#3D5286"/>
<path d="M19.8937 15.6721C18.9388 15.6554 18.1147 16.6051 18.3167 17.5539C18.4525 19.0038 19.3874 20.1802 20.1169 21.3774C20.1989 21.8231 19.9638 22.2572 19.9481 22.6998C19.4724 25.298 18.7468 27.8825 17.6305 30.2673C16.2492 30.9032 14.6851 31.5312 13.8771 32.9017C13.3644 33.8527 14.0864 35.1361 15.1462 35.2364C16.1294 35.3709 16.8592 34.5283 17.3967 33.8223C17.9579 33.0629 18.3272 32.1587 18.7941 31.3426C21.6202 30.2045 24.5928 29.4091 27.6277 29.1072C28.8547 29.9854 30.155 31.0215 31.7283 31.0841C32.6429 31.0705 33.383 30.1827 33.2825 29.2809C33.2236 28.4599 32.4942 27.8841 31.7386 27.73C30.5199 27.3629 29.2147 27.5639 27.9749 27.5728C25.5894 25.6667 23.387 23.4735 21.6525 20.9639C21.7813 19.4383 22.0398 17.7507 21.2454 16.3628C20.9438 15.9251 20.4326 15.6252 19.8937 15.6721ZM19.9391 17.0576C20.2077 17.1094 20.2256 17.5095 20.3008 17.7235C20.3716 18.1595 20.3639 18.6045 20.3587 19.0449C20.0388 18.447 19.6233 17.8224 19.6973 17.1135C19.7816 17.1102 19.8563 17.0674 19.9391 17.0576ZM21.419 23.0069C22.8408 24.7746 24.4201 26.4025 26.1437 27.8789C23.8711 28.2254 21.6133 28.806 19.4514 29.589C20.2806 27.4217 20.912 25.1825 21.328 22.8973C21.3583 22.9339 21.3887 22.9704 21.419 23.0069ZM30.2877 28.95C30.839 29.0032 31.4753 28.9713 31.9163 29.3512C31.9578 29.6941 31.5383 29.7441 31.3149 29.62C30.8488 29.4644 30.3878 29.2688 29.9921 28.9707C30.0907 28.9646 30.1889 28.9519 30.2877 28.95ZM16.5123 32.5564C16.2502 33.0439 15.8686 33.5036 15.4707 33.8488C15.3382 34.0632 14.9748 33.6668 15.142 33.4994C15.4873 32.9589 16.0901 32.6725 16.6239 32.3496C16.5867 32.4185 16.5495 32.4875 16.5123 32.5564Z" fill="#3D5286"/>
</svg>
